# xmcd
#
# Track frame offsets: 
#        150
#        17880
#        37497
#        52595
#        64930
#        85876
#        107098
#        127722
#        143902
#        168407
#        188752
#        203994
#        224118
#        243489
#        266697
#
# Disc length: 3808 seconds
#
# Revision: 0
# Processed by: cddbd v1.5.2PL0 Copyright (c) Steve Scherf et al.
# Submitted via: ExactAudioCopyFreeDBPlugin 1.0
#
DISCID=e00ede0f
DTITLE=Reidar Larsen and The Storytellers - Ekko fra Hovigs Hangar
DYEAR=2010
DGENRE=Blues
TTITLE0=Intro and Mr Blues Is Coming To Town
TTITLE1=Crawdad Hole
TTITLE2=Noahs Ark
TTITLE3=Blakke og blåe
TTITLE4=Pyramidesamfunnet
TTITLE5=Vente te i mårå
TTITLE6=Little venn
TTITLE7=Eg har ikkje svenskepilk
TTITLE8=Kom inn te oss
TTITLE9=I'm A Blues Man
TTITLE10=He's Got A Way With Women
TTITLE11=Boogie Woman
TTITLE12=Christina
TTITLE13=Roll'em Pete
TTITLE14=Mangen bler møje
EXTD=
EXTT0=
EXTT1=
EXTT2=
EXTT3=
EXTT4=
EXTT5=
EXTT6=
EXTT7=
EXTT8=
EXTT9=
EXTT10=
EXTT11=
EXTT12=
EXTT13=
EXTT14=
PLAYORDER=
